<svg width="66" height="113" viewBox="0 0 66 113" fill="none" xmlns="http://www.w3.org/2000/svg">
<circle cx="2.88717" cy="2.88717" r="2.88717" fill="#8998C5" fill-opacity="0.15"/>
<circle cx="14.7831" cy="2.88717" r="2.88717" fill="#8998C5" fill-opacity="0.15"/>
<circle cx="26.679" cy="2.88717" r="2.88717" fill="#8998C5" fill-opacity="0.15"/>
<circle cx="38.5749" cy="2.88717" r="2.88717" fill="#8998C5" fill-opacity="0.15"/>
<circle cx="50.4708" cy="2.88717" r="2.88717" fill="#8998C5" fill-opacity="0.15"/>
<circle cx="62.3667" cy="2.88717" r="2.88717" fill="#8998C5" fill-opacity="0.15"/>
<circle cx="2.88717" cy="16.2266" r="2.88717" fill="#8998C5" fill-opacity="0.15"/>
<circle cx="14.7831" cy="16.2266" r="2.88717" fill="#8998C5" fill-opacity="0.15"/>
<circle cx="26.679" cy="16.2266" r="2.88717" fill="#8998C5" fill-opacity="0.15"/>
<circle cx="38.5749" cy="16.2266" r="2.88717" fill="#8998C5" fill-opacity="0.15"/>
<circle cx="50.4708" cy="16.2266" r="2.88717" fill="#8998C5" fill-opacity="0.15"/>
<circle cx="62.3667" cy="16.2266" r="2.88717" fill="#8998C5" fill-opacity="0.15"/>
<circle cx="2.88717" cy="29.5661" r="2.88717" fill="#8998C5" fill-opacity="0.15"/>
<circle cx="14.7831" cy="29.5661" r="2.88717" fill="#8998C5" fill-opacity="0.15"/>
<circle cx="26.679" cy="29.5661" r="2.88717" fill="#8998C5" fill-opacity="0.15"/>
<circle cx="38.5749" cy="29.5661" r="2.88717" fill="#8998C5" fill-opacity="0.15"/>
<circle cx="50.4708" cy="29.5661" r="2.88717" fill="#8998C5" fill-opacity="0.15"/>
<circle cx="62.3667" cy="29.5661" r="2.88717" fill="#8998C5" fill-opacity="0.15"/>
<circle cx="2.88717" cy="42.9055" r="2.88717" fill="#8998C5" fill-opacity="0.15"/>
<circle cx="14.7831" cy="42.9055" r="2.88717" fill="#8998C5" fill-opacity="0.15"/>
<circle cx="26.679" cy="42.9055" r="2.88717" fill="#8998C5" fill-opacity="0.15"/>
<circle cx="38.5749" cy="42.9055" r="2.88717" fill="#8998C5" fill-opacity="0.15"/>
<circle cx="50.4708" cy="42.9055" r="2.88717" fill="#8998C5" fill-opacity="0.15"/>
<circle cx="62.3667" cy="42.9055" r="2.88717" fill="#8998C5" fill-opacity="0.15"/>
<circle cx="2.88717" cy="56.2449" r="2.88717" fill="#8998C5" fill-opacity="0.15"/>
<circle cx="14.7831" cy="56.2449" r="2.88717" fill="#8998C5" fill-opacity="0.15"/>
<circle cx="26.679" cy="56.2449" r="2.88717" fill="#8998C5" fill-opacity="0.15"/>
<circle cx="38.5749" cy="56.2449" r="2.88717" fill="#8998C5" fill-opacity="0.15"/>
<circle cx="50.4708" cy="56.2449" r="2.88717" fill="#8998C5" fill-opacity="0.15"/>
<circle cx="62.3667" cy="56.2449" r="2.88717" fill="#8998C5" fill-opacity="0.15"/>
<circle cx="2.88717" cy="69.5844" r="2.88717" fill="#8998C5" fill-opacity="0.15"/>
<circle cx="14.7831" cy="69.5844" r="2.88717" fill="#8998C5" fill-opacity="0.15"/>
<circle cx="26.679" cy="69.5844" r="2.88717" fill="#8998C5" fill-opacity="0.15"/>
<circle cx="38.5749" cy="69.5844" r="2.88717" fill="#8998C5" fill-opacity="0.15"/>
<circle cx="50.4708" cy="69.5844" r="2.88717" fill="#8998C5" fill-opacity="0.15"/>
<circle cx="62.3667" cy="69.5844" r="2.88717" fill="#8998C5" fill-opacity="0.15"/>
<circle cx="2.88717" cy="82.9238" r="2.88717" fill="#8998C5" fill-opacity="0.15"/>
<circle cx="14.7831" cy="82.9238" r="2.88717" fill="#8998C5" fill-opacity="0.15"/>
<circle cx="26.679" cy="82.9238" r="2.88717" fill="#8998C5" fill-opacity="0.15"/>
<circle cx="38.5749" cy="82.9238" r="2.88717" fill="#8998C5" fill-opacity="0.15"/>
<circle cx="50.4708" cy="82.9238" r="2.88717" fill="#8998C5" fill-opacity="0.15"/>
<circle cx="62.3667" cy="82.9238" r="2.88717" fill="#8998C5" fill-opacity="0.15"/>
<circle cx="2.88717" cy="96.2633" r="2.88717" fill="#8998C5" fill-opacity="0.15"/>
<circle cx="14.7831" cy="96.2633" r="2.88717" fill="#8998C5" fill-opacity="0.15"/>
<circle cx="26.679" cy="96.2633" r="2.88717" fill="#8998C5" fill-opacity="0.15"/>
<circle cx="38.5749" cy="96.2633" r="2.88717" fill="#8998C5" fill-opacity="0.15"/>
<circle cx="50.4708" cy="96.2633" r="2.88717" fill="#8998C5" fill-opacity="0.15"/>
<circle cx="62.3667" cy="96.2633" r="2.88717" fill="#8998C5" fill-opacity="0.15"/>
<circle cx="2.88717" cy="109.603" r="2.88717" fill="#8998C5" fill-opacity="0.15"/>
<circle cx="14.7831" cy="109.603" r="2.88717" fill="#8998C5" fill-opacity="0.15"/>
<circle cx="26.679" cy="109.603" r="2.88717" fill="#8998C5" fill-opacity="0.15"/>
<circle cx="38.5749" cy="109.603" r="2.88717" fill="#8998C5" fill-opacity="0.15"/>
<circle cx="50.4708" cy="109.603" r="2.88717" fill="#8998C5" fill-opacity="0.15"/>
<circle cx="62.3667" cy="109.603" r="2.88717" fill="#8998C5" fill-opacity="0.15"/>
</svg>
